<svg width="753" height="639" viewBox="0 0 753 639" fill="none" xmlns="http://www.w3.org/2000/svg">
<rect width="753" height="639" fill="white"/>
<path fill-rule="evenodd" clip-rule="evenodd" d="M376 164C461.604 164 531 233.396 531 319C531 404.604 461.604 474 376 474C290.396 474 221 404.604 221 319C221 233.396 290.396 164 376 164ZM376 48C525.669 48 647 169.331 647 319C647 468.669 525.669 590 376 590C226.331 590 105 468.669 105 319C105 169.331 226.331 48 376 48Z" fill="#E1E8F0"/>
<path d="M190.529 98.5148C179.73 93.6265 168.767 93.2786 157.638 97.4714C146.51 101.664 138.502 109.16 133.613 119.958C129.017 130.111 128.434 140.398 131.862 150.819C136.163 160.911 143.389 168.256 153.541 172.852C164.34 177.74 175.304 178.088 186.432 173.895C197.56 169.702 205.569 162.207 210.457 151.408C215.053 141.255 215.637 130.969 212.208 120.548C207.908 110.455 200.681 103.111 190.529 98.5148Z" fill="url(#paint0_linear_55_3)"/>
<path d="M189.013 94.4927C178.215 89.6043 167.251 89.2565 156.123 93.4493C144.995 97.642 136.986 105.138 132.098 115.936C127.209 126.735 126.862 137.698 131.054 148.827C131.307 149.497 131.576 150.161 131.862 150.819C128.434 140.398 129.017 130.111 133.613 119.959C138.502 109.16 146.51 101.664 157.638 97.4716C168.767 93.2788 179.73 93.6266 190.529 98.515C200.681 103.111 207.908 110.455 212.208 120.548C211.989 119.865 211.753 119.188 211.5 118.518C207.308 107.389 199.812 99.381 189.013 94.4927Z" fill="url(#paint1_linear_55_3)"/>
<path d="M184.923 140.946C184.39 140.649 183.849 140.585 183.3 140.754C182.717 140.935 182.295 141.286 182.031 141.806C181.852 142.142 181.655 142.483 181.442 142.832L181.391 142.851C180.237 144.664 178.52 145.999 176.241 146.858C173.895 147.742 171.673 147.89 169.576 147.302C169.312 147.211 169.064 147.112 168.833 147.008C168.301 146.711 167.76 146.647 167.211 146.815C166.628 146.997 166.205 147.347 165.942 147.868C165.645 148.401 165.587 148.958 165.769 149.541C165.937 150.09 166.288 150.512 166.821 150.809C167.249 151.031 167.744 151.227 168.306 151.398C168.339 151.385 168.362 151.396 168.375 151.429C171.344 152.301 174.472 152.118 177.757 150.88C180.974 149.668 183.401 147.778 185.036 145.21L185.017 145.159C185.306 144.706 185.578 144.259 185.833 143.819C186.096 143.298 186.143 142.764 185.975 142.215C185.794 141.632 185.443 141.209 184.923 140.946Z" fill="#3D465D"/>
<path d="M143.802 132.382C144.338 132.486 144.866 132.363 145.386 132.015L159.35 121.988C159.835 121.652 160.141 121.192 160.266 120.609C160.323 120.052 160.161 119.52 159.779 119.013L159.168 118.152C158.819 117.633 158.382 117.338 157.858 117.268C157.242 117.155 156.691 117.267 156.205 117.604L142.241 127.63C141.722 127.979 141.439 128.449 141.394 129.04C141.257 129.589 141.362 130.124 141.711 130.643L142.322 131.504C142.705 132.01 143.198 132.303 143.802 132.382Z" fill="#3D465D"/>
<path d="M170.994 116.625C171.439 116.993 171.955 117.143 172.541 117.075L189.65 115.395C190.27 115.314 190.771 115.068 191.152 114.657C191.507 114.178 191.662 113.623 191.614 112.99L191.506 111.94C191.425 111.319 191.175 110.858 190.755 110.557C190.285 110.122 189.74 109.945 189.12 110.025L172.011 111.706C171.424 111.774 170.953 112.047 170.598 112.525C170.217 112.937 170.067 113.453 170.147 114.073L170.256 115.123C170.303 115.756 170.549 116.256 170.994 116.625Z" fill="#3D465D"/>
<path d="M153.456 133.625C150.138 134.875 147.748 137.115 146.285 140.345C145.805 141.407 145.477 142.468 145.303 143.529L145.322 143.579C145.143 144.527 145.1 145.481 145.194 146.441C145.229 147.04 145.468 147.524 145.913 147.892C146.371 148.294 146.893 148.461 147.48 148.393C148.079 148.358 148.58 148.112 148.982 147.655C149.35 147.21 149.517 146.688 149.482 146.088C149.414 145.501 149.437 144.9 149.549 144.283C149.669 143.587 149.897 142.87 150.231 142.132C151.179 139.975 152.76 138.48 154.972 137.647C157.151 136.826 159.324 136.906 161.493 137.888C162.198 138.235 162.859 138.618 163.476 139.036C163.934 139.438 164.37 139.886 164.786 140.38C165.156 140.853 165.636 141.112 166.227 141.157C166.831 141.236 167.37 141.091 167.843 140.721C168.249 140.376 168.491 139.902 168.57 139.299C168.615 138.707 168.453 138.175 168.083 137.702C167.512 136.999 166.88 136.337 166.188 135.718C166.141 135.697 166.112 135.67 166.099 135.636C165.214 135.013 164.274 134.448 163.279 133.943L163.298 133.993C160.055 132.497 156.775 132.374 153.456 133.625Z" fill="#3D465D"/>
<path d="M183.623 122.259C180.305 123.509 177.915 125.749 176.452 128.98C175.972 130.041 175.644 131.102 175.47 132.163L175.489 132.213C175.31 133.161 175.268 134.115 175.361 135.075C175.396 135.674 175.635 136.158 176.08 136.526C176.538 136.928 177.06 137.095 177.647 137.027C178.246 136.993 178.747 136.747 179.149 136.289C179.517 135.844 179.684 135.322 179.65 134.722C179.582 134.136 179.604 133.534 179.716 132.918C179.836 132.221 180.064 131.504 180.398 130.766C181.346 128.61 182.927 127.115 185.139 126.281C187.318 125.46 189.492 125.541 191.66 126.523C192.365 126.869 193.026 127.252 193.643 127.67C194.101 128.072 194.537 128.52 194.953 129.014C195.323 129.487 195.803 129.746 196.394 129.792C196.998 129.87 197.537 129.725 198.01 129.355C198.416 129.011 198.658 128.537 198.737 127.933C198.782 127.342 198.62 126.809 198.251 126.336C197.679 125.633 197.047 124.971 196.355 124.352C196.308 124.331 196.279 124.304 196.266 124.27C195.381 123.647 194.441 123.083 193.447 122.577L193.466 122.627C190.223 121.131 186.942 121.009 183.623 122.259Z" fill="#3D465D"/>
<path d="M246.53 91.5815C245.665 90.7001 244.627 90.2909 243.417 90.3538C242.782 90.3582 242.221 90.4955 241.734 90.7657C241.222 90.9916 240.771 91.3283 240.382 91.7757C239.526 92.6852 239.106 93.7575 239.125 94.9925C239.147 98.4267 238.787 101.826 238.047 105.191C237.705 101.442 236.823 97.6302 235.399 93.7569C234.943 92.62 234.171 91.8026 233.084 91.3047C231.962 90.797 230.846 90.7937 229.733 91.2946C228.596 91.7512 227.774 92.5403 227.266 93.6616C226.783 94.8273 226.748 95.9909 227.16 97.1524C228.5 100.666 229.243 104.121 229.388 107.516C229.485 109.258 229.212 111.248 228.571 113.486C227.706 112.083 226.815 110.449 225.896 108.583C225.326 107.451 224.478 106.705 223.352 106.345C222.191 105.975 221.079 106.085 220.015 106.674C218.918 107.254 218.179 108.142 217.799 109.337C217.429 110.498 217.512 111.639 218.047 112.761C218.494 113.672 218.939 114.526 219.381 115.323C220.54 117.519 221.702 119.38 222.867 120.906C222.892 120.95 222.921 120.977 222.956 120.987L224.01 122.184C226.074 124.862 228.602 127.095 231.592 128.884C236.215 131.215 240.362 131.043 244.035 128.37C244.178 128.262 244.321 128.154 244.463 128.046C244.813 127.736 245.158 127.443 245.497 127.168C248.083 124.518 250.581 120.353 252.991 114.672L255.017 110.334C255.559 109.223 256.037 108.074 256.452 106.889C256.575 106.589 256.681 106.284 256.77 105.974C257.149 104.779 257.067 103.637 256.522 102.549C255.942 101.452 255.089 100.723 253.962 100.363C252.802 99.9927 251.689 100.103 250.626 100.692C249.529 101.272 248.79 102.159 248.41 103.355C247.912 104.963 247.229 106.5 246.362 107.965C247.389 103.602 247.887 99.199 247.856 94.7561C247.862 93.8262 247.629 93.0142 247.157 92.32C246.975 92.0444 246.766 91.7982 246.53 91.5815Z" fill="url(#paint2_linear_55_3)"/>
<path d="M93.8455 139.725C92.6929 140.169 91.9051 140.958 91.4821 142.094C91.2341 142.679 91.1373 143.248 91.1917 143.803C91.1957 144.362 91.3257 144.909 91.5818 145.444C92.0762 146.592 92.8937 147.402 94.0345 147.875C97.1949 149.22 100.172 150.9 102.966 152.916C99.3892 151.74 95.5408 151.036 91.4207 150.804C90.1959 150.772 89.1392 151.155 88.2506 151.955C87.3393 152.783 86.8926 153.806 86.9105 155.026C86.878 156.251 87.2755 157.319 88.1029 158.23C88.9808 159.137 90.0346 159.631 91.2643 159.714C95.0217 159.88 98.487 160.571 101.66 161.786C103.297 162.389 105.015 163.429 106.815 164.907C105.184 165.143 103.33 165.312 101.253 165.414C99.9876 165.488 98.966 165.97 98.1881 166.86C97.3875 167.779 97.0465 168.843 97.1653 170.053C97.2613 171.291 97.7823 172.321 98.7284 173.144C99.6468 173.945 100.727 174.323 101.97 174.277C102.983 174.228 103.943 174.16 104.851 174.071C107.326 173.879 109.495 173.551 111.359 173.088C111.409 173.083 111.446 173.067 111.468 173.039L112.985 172.547C116.263 171.716 119.316 170.284 122.145 168.251C126.121 164.934 127.611 161.059 126.616 156.627C126.574 156.453 126.531 156.279 126.489 156.105C126.343 155.661 126.212 155.228 126.094 154.807C124.689 151.382 121.859 147.435 117.603 142.967L114.426 139.385C113.622 138.446 112.758 137.551 111.834 136.7C111.608 136.467 111.37 136.249 111.121 136.044C110.175 135.221 109.094 134.843 107.879 134.912C106.642 135.008 105.634 135.501 104.856 136.392C104.056 137.31 103.715 138.374 103.833 139.584C103.929 140.822 104.45 141.852 105.397 142.676C106.675 143.772 107.814 145.009 108.815 146.387C105.218 143.711 101.375 141.505 97.2855 139.769C96.4344 139.394 95.5966 139.286 94.7722 139.443C94.4469 139.5 94.138 139.594 93.8455 139.725Z" fill="url(#paint3_linear_55_3)"/>
<path d="M603.26 400.059C603.433 393.392 600.091 389.884 593.233 389.534L534.36 386.53C527.535 386.182 523.87 389.332 523.364 395.982L520.512 451.859C520.337 458.559 523.662 462.083 530.486 462.431L589.36 465.435C596.218 465.785 599.9 462.619 600.408 455.936L603.26 400.059Z" fill="url(#paint4_linear_55_3)"/>
<path d="M603.438 396.563C603.795 389.572 600.461 385.898 593.437 385.539L534.563 382.535C527.572 382.178 523.899 385.495 523.542 392.486L523.364 395.982C523.87 389.332 527.535 386.182 534.36 386.53L593.233 389.534C600.091 389.884 603.433 393.392 603.26 400.059L603.438 396.563Z" fill="url(#paint5_linear_55_3)"/>
<path d="M547.162 417.567C544.395 417.567 542.045 418.55 540.112 420.517C538.145 422.483 537.162 424.833 537.162 427.567C537.162 430.333 538.145 432.683 540.112 434.617C542.045 436.583 544.395 437.567 547.162 437.567C549.928 437.567 552.278 436.583 554.212 434.617C556.178 432.683 557.162 430.333 557.162 427.567C557.162 424.833 556.178 422.483 554.212 420.517C552.278 418.55 549.928 417.567 547.162 417.567Z" fill="white"/>
<path d="M547.162 421.567C545.528 421.567 544.128 422.167 542.962 423.367C541.762 424.533 541.162 425.933 541.162 427.567C541.162 429.233 541.762 430.65 542.962 431.817C544.128 432.983 545.528 433.567 547.162 433.567C548.828 433.567 550.245 432.983 551.412 431.817C552.578 430.65 553.162 429.233 553.162 427.567C553.162 425.933 552.578 424.533 551.412 423.367C550.245 422.167 548.828 421.567 547.162 421.567Z" fill="#3D465D"/>
<path d="M577.162 417.567C574.395 417.567 572.045 418.55 570.112 420.517C568.145 422.483 567.162 424.833 567.162 427.567C567.162 430.333 568.145 432.683 570.112 434.617C572.045 436.583 574.395 437.567 577.162 437.567C579.928 437.567 582.278 436.583 584.212 434.617C586.178 432.683 587.162 430.333 587.162 427.567C587.162 424.833 586.178 422.483 584.212 420.517C582.278 418.55 579.928 417.567 577.162 417.567Z" fill="white"/>
<path d="M577.162 421.567C575.528 421.567 574.128 422.167 572.962 423.367C571.762 424.533 571.162 425.933 571.162 427.567C571.162 429.233 571.762 430.65 572.962 431.817C574.128 432.983 575.528 433.567 577.162 433.567C578.828 433.567 580.245 432.983 581.412 431.817C582.578 430.65 583.162 429.233 583.162 427.567C583.162 425.933 582.578 424.533 581.412 423.367C580.245 422.167 578.828 421.567 577.162 421.567Z" fill="#3D465D"/>
<path d="M534.512 410.267C533.945 410.4 533.545 410.7 533.312 411.167C533.012 411.633 532.928 412.15 533.062 412.717L534.112 416.567C534.245 417.133 534.562 417.533 535.062 417.767C535.495 418.067 535.995 418.15 536.562 418.017L555.862 412.817C556.395 412.683 556.812 412.367 557.112 411.867C557.378 411.433 557.445 410.933 557.312 410.367L556.262 406.517C556.128 405.95 555.828 405.533 555.362 405.267C554.862 405 554.345 404.933 553.812 405.067L534.512 410.267Z" fill="#3D465D"/>
<path d="M570.512 405.067C569.978 404.933 569.462 405 568.962 405.267C568.495 405.533 568.195 405.95 568.062 406.517L567.012 410.367C566.878 410.933 566.945 411.433 567.212 411.867C567.512 412.367 567.928 412.683 568.462 412.817L587.762 418.017C588.328 418.15 588.828 418.067 589.262 417.767C589.762 417.533 590.078 417.133 590.212 416.567L591.262 412.717C591.395 412.15 591.312 411.633 591.012 411.167C590.778 410.7 590.378 410.4 589.812 410.267L570.512 405.067Z" fill="#3D465D"/>
<path d="M571.512 443.067C571.145 442.767 570.762 442.467 570.362 442.167C568.095 440.433 565.362 439.567 562.162 439.567C558.895 439.567 556.112 440.433 553.812 442.167C553.812 442.2 553.795 442.217 553.762 442.217C553.328 442.55 552.962 442.9 552.662 443.267C552.295 443.667 552.128 444.15 552.162 444.717C552.195 445.25 552.428 445.7 552.862 446.067C553.262 446.433 553.745 446.6 554.312 446.567C554.845 446.533 555.295 446.317 555.662 445.917C555.828 445.717 556.012 445.533 556.212 445.367C557.845 444.167 559.828 443.567 562.162 443.567C564.428 443.567 566.362 444.167 567.962 445.367L568.012 445.417C568.312 445.617 568.595 445.833 568.862 446.067C569.262 446.433 569.745 446.6 570.312 446.567C570.845 446.533 571.295 446.317 571.662 445.917C572.028 445.483 572.195 445 572.162 444.467C572.128 443.9 571.912 443.433 571.512 443.067Z" fill="#3D465D"/>
<path d="M502.487 467.059C502.89 467.065 503.285 467.048 503.672 467.01C507.259 466.751 509.554 464.351 510.556 459.81C511.588 455.284 511.266 451.556 509.59 448.626C508.612 446.874 507.227 445.317 505.437 443.955L502.487 467.059Z" fill="url(#paint6_linear_55_3)"/>
<path d="M475.656 456.431C474.976 459.354 475.924 461.718 478.499 463.525C479.454 464.234 480.39 464.75 481.307 465.072C480.799 467.708 482.16 469.862 485.388 471.534C488.166 473.068 490.482 472.964 492.337 471.222C492.712 473.316 494.522 474.245 497.767 474.008C500.849 473.805 502.422 471.489 502.487 467.059L505.437 443.956C504.223 443.013 502.818 442.165 501.22 441.411C497.302 439.56 493.381 439.238 489.456 440.444C488.968 440.619 488.495 440.801 488.037 440.99C481.237 444.303 477.11 449.45 475.656 456.431Z" fill="url(#paint7_linear_55_3)"/>
<path d="M643.368 477.23C644.31 476.572 644.845 475.682 644.974 474.562C645.067 473.978 645.027 473.442 644.854 472.954C644.726 472.449 644.486 471.984 644.135 471.558C643.432 470.632 642.512 470.082 641.376 469.91C638.221 469.402 635.156 468.549 632.182 467.352C635.675 467.615 639.309 467.391 643.083 466.68C644.197 466.435 645.065 465.853 645.689 464.932C646.328 463.98 646.503 462.956 646.214 461.858C645.97 460.744 645.372 459.868 644.421 459.23C643.425 458.607 642.363 458.396 641.233 458.596C637.802 459.286 634.517 459.436 631.379 459.047C629.765 458.868 627.981 458.313 626.025 457.38C627.446 456.802 629.083 456.235 630.936 455.678C632.063 455.329 632.878 454.666 633.381 453.687C633.9 452.679 633.97 451.641 633.592 450.575C633.229 449.478 632.528 448.664 631.489 448.131C630.481 447.613 629.42 447.514 628.308 447.832C627.403 448.103 626.551 448.379 625.751 448.663C623.558 449.389 621.672 450.17 620.092 451.004C620.047 451.02 620.018 451.043 620.004 451.073L618.743 451.857C615.968 453.34 613.53 455.316 611.429 457.785C608.578 461.67 608.098 465.503 609.987 469.285C610.064 469.432 610.142 469.58 610.219 469.728C610.449 470.096 610.665 470.457 610.865 470.812C612.9 473.592 616.339 476.525 621.182 479.61L624.852 482.137C625.789 482.805 626.769 483.421 627.794 483.983C628.05 484.142 628.314 484.286 628.585 484.416C629.623 484.948 630.684 485.048 631.766 484.714C632.862 484.351 633.663 483.68 634.166 482.702C634.684 481.693 634.754 480.656 634.377 479.589C634.014 478.493 633.313 477.678 632.274 477.146C630.874 476.441 629.569 475.578 628.357 474.557C632.204 476.17 636.168 477.305 640.251 477.959C641.103 478.107 641.884 478.018 642.594 477.692C642.875 477.568 643.133 477.414 643.368 477.23Z" fill="url(#paint8_linear_55_3)"/>
<path d="M186.09 480.771L184.856 470.847L105.467 480.717L106.701 490.64C107.722 497.231 111.607 500.108 118.355 499.269L176.854 491.996C183.635 491.153 186.714 487.411 186.09 480.771Z" fill="url(#paint9_linear_55_3)"/>
<path d="M184.116 464.893C183.128 458.298 179.227 455.424 172.413 456.271L113.913 463.544C107.132 464.387 104.07 468.126 104.727 474.763L105.467 480.717L184.856 470.847L184.116 464.893Z" fill="url(#paint10_linear_55_3)"/>
<path d="M183.684 461.42C182.821 454.473 178.899 451.434 171.919 452.302L113.42 459.574C106.473 460.438 103.432 464.343 104.295 471.289L104.727 474.763C104.07 468.126 107.132 464.387 113.913 463.544L172.413 456.271C179.227 455.424 183.128 458.298 184.116 464.893L183.684 461.42Z" fill="url(#paint11_linear_55_3)"/>
<path d="M522.963 79.7621C524.05 73.1826 521.222 69.2486 514.477 67.9602L456.574 56.8991C449.862 55.6169 445.799 58.2344 444.384 64.7513L433.886 119.708C432.792 126.32 435.602 130.267 442.314 131.549L500.217 142.61C506.961 143.899 511.044 141.268 512.465 134.718L522.963 79.7621ZM500.04 82.5098C500.297 81.1674 500.994 80.0958 502.131 79.295C503.294 78.5331 504.547 78.2804 505.89 78.5368C507.232 78.7932 508.287 79.4869 509.056 80.6178C509.85 81.7877 510.119 83.0438 509.863 84.3862C509.606 85.7286 508.896 86.7807 507.733 87.5426C506.596 88.3434 505.356 88.6156 504.013 88.3592C502.671 88.1028 501.603 87.3896 500.808 86.2197C500.04 85.0889 499.784 83.8522 500.04 82.5098ZM481.61 83.0614C482.952 83.3178 484.007 84.0115 484.775 85.1423C485.57 86.3122 485.839 87.5683 485.583 88.9107L483.706 98.7331C483.45 100.076 482.74 101.128 481.576 101.89C480.439 102.69 479.199 102.963 477.857 102.706C476.514 102.45 475.446 101.737 474.651 100.567C473.883 99.4358 473.627 98.1992 473.884 96.8568L475.76 87.0344C476.017 85.692 476.713 84.6204 477.851 83.8195C479.014 83.0576 480.267 82.8049 481.61 83.0614ZM501.175 121.872C501.969 123.042 502.239 124.298 501.982 125.64C501.726 126.983 501.016 128.035 499.852 128.797C498.715 129.597 497.475 129.87 496.133 129.613C494.79 129.357 493.722 128.644 492.927 127.474C492.159 126.343 491.903 125.106 492.16 123.764C492.416 122.421 493.113 121.35 494.25 120.549C495.414 119.787 496.667 119.534 498.009 119.791C499.351 120.047 500.407 120.741 501.175 121.872ZM480.46 107.734C481.254 108.904 481.523 110.16 481.267 111.502C481.011 112.845 480.301 113.897 479.137 114.659C478 115.459 476.76 115.732 475.418 115.475C474.075 115.219 473.007 114.506 472.212 113.336C471.444 112.205 471.188 110.968 471.445 109.626C471.701 108.283 472.398 107.212 473.535 106.411C474.699 105.649 475.952 105.396 477.294 105.653C478.636 105.909 479.692 106.603 480.46 107.734ZM456.948 70.6638C458.111 69.9019 459.364 69.6492 460.707 69.9056C462.049 70.162 463.104 70.8557 463.873 71.9866C464.667 73.1565 464.936 74.4126 464.68 75.755C464.423 77.0974 463.713 78.1495 462.55 78.9114C461.413 79.7122 460.173 79.9844 458.83 79.728C457.488 79.4716 456.42 78.7584 455.625 77.5885C454.857 76.4577 454.601 75.221 454.857 73.8786C455.114 72.5362 455.811 71.4646 456.948 70.6638ZM455.992 113.241C456.786 114.41 457.056 115.667 456.799 117.009C456.543 118.351 455.833 119.404 454.669 120.165C453.532 120.966 452.292 121.238 450.95 120.982C449.607 120.726 448.539 120.012 447.744 118.843C446.976 117.712 446.72 116.475 446.977 115.133C447.233 113.79 447.93 112.719 449.067 111.918C450.231 111.156 451.484 110.903 452.826 111.16C454.168 111.416 455.224 112.11 455.992 113.241Z" fill="url(#paint12_linear_55_3)"/>
<path d="M456.799 117.009C457.056 115.667 456.786 114.411 455.992 113.241C455.224 112.11 454.169 111.416 452.826 111.16C451.484 110.903 450.231 111.156 449.067 111.918C447.93 112.719 447.233 113.79 446.977 115.133C446.72 116.475 446.976 117.712 447.744 118.843C448.539 120.013 449.607 120.726 450.95 120.982C452.292 121.239 453.532 120.966 454.669 120.165C455.833 119.404 456.543 118.351 456.799 117.009ZM460.707 69.9057C459.364 69.6493 458.111 69.902 456.948 70.6638C455.811 71.4647 455.114 72.5363 454.857 73.8787C454.601 75.2211 454.857 76.4578 455.625 77.5886C456.42 78.7585 457.488 79.4717 458.83 79.7281C460.173 79.9845 461.413 79.7123 462.55 78.9115C463.713 78.1496 464.423 77.0975 464.68 75.7551C464.936 74.4127 464.667 73.1565 463.873 71.9867C463.104 70.8558 462.049 70.1621 460.707 69.9057ZM501.982 125.64C502.239 124.298 501.969 123.042 501.175 121.872C500.407 120.741 499.352 120.047 498.009 119.791C496.667 119.534 495.414 119.787 494.25 120.549C493.113 121.35 492.416 122.422 492.16 123.764C491.903 125.106 492.159 126.343 492.927 127.474C493.722 128.644 494.79 129.357 496.133 129.613C497.475 129.87 498.715 129.598 499.852 128.797C501.016 128.035 501.726 126.983 501.982 125.64ZM502.131 79.295C500.994 80.0959 500.297 81.1675 500.04 82.5099C499.784 83.8523 500.04 85.0889 500.808 86.2198C501.603 87.3897 502.671 88.1029 504.013 88.3593C505.356 88.6157 506.596 88.3435 507.733 87.5427C508.896 86.7808 509.606 85.7287 509.863 84.3863C510.119 83.0439 509.85 81.7877 509.056 80.6179C508.287 79.487 507.232 78.7933 505.89 78.5369C504.547 78.2805 503.294 78.5332 502.131 79.295Z" fill="#EC9D17"/>
<path d="M481.267 111.502C481.523 110.16 481.254 108.904 480.46 107.734C479.692 106.603 478.636 105.909 477.294 105.653C475.952 105.397 474.699 105.649 473.535 106.411C472.398 107.212 471.701 108.284 471.445 109.626C471.188 110.968 471.444 112.205 472.212 113.336C473.007 114.506 474.075 115.219 475.418 115.475C476.76 115.732 478 115.46 479.137 114.659C480.301 113.897 481.011 112.845 481.267 111.502ZM484.775 85.1424C484.007 84.0116 482.952 83.3179 481.61 83.0615C480.267 82.805 479.014 83.0577 477.851 83.8196C476.713 84.6205 476.017 85.6921 475.76 87.0345L473.884 96.8569C473.627 98.1993 473.883 99.4359 474.651 100.567C475.446 101.737 476.514 102.45 477.857 102.706C479.199 102.963 480.439 102.69 481.576 101.89C482.74 101.128 483.45 100.076 483.706 98.7332L485.583 88.9108C485.839 87.5684 485.57 86.3123 484.775 85.1424Z" fill="white"/>
<path d="M523.62 76.3243C524.933 69.4486 522.136 65.3509 515.227 64.0312L457.324 52.9702C450.449 51.6567 446.354 54.4378 445.041 61.3135L444.384 64.7513C445.799 58.2344 449.862 55.6169 456.574 56.8991L514.477 67.9602C521.222 69.2486 524.05 73.1826 522.963 79.7621L523.62 76.3243Z" fill="url(#paint13_linear_55_3)"/>
<path d="M165 363C153.667 351.667 146 346 142 346C138 346 130.333 351.667 119 363C109.333 372.733 103.783 379.75 102.35 384.05C102.417 384.217 102.483 384.4 102.55 384.6C104.217 388.967 109.7 395.767 119 405C130.3 416.333 137.967 422 142 422C146 422 153.667 416.333 165 405C174.3 395.767 179.8 388.967 181.5 384.6C181.567 384.433 181.617 384.267 181.65 384.1C180.283 379.8 174.733 372.767 165 363Z" fill="url(#paint14_linear_55_3)"/>
<path d="M165 359C153.667 347.667 146 342 142 342C138 342 130.333 347.667 119 359C107.667 370.4 102 378.067 102 382C102 382.6 102.117 383.283 102.35 384.05C103.783 379.75 109.333 372.733 119 363C130.333 351.667 138 346 142 346C146 346 153.667 351.667 165 363C174.733 372.767 180.283 379.8 181.65 384.1C181.883 383.3 182 382.6 182 382C182 378.067 176.333 370.4 165 359Z" fill="url(#paint15_linear_55_3)"/>
<path d="M133.211 375.461C131.278 373.495 128.928 372.511 126.161 372.511C123.395 372.511 121.045 373.495 119.111 375.461C117.145 377.395 116.161 379.745 116.161 382.511H136.161C136.161 379.745 135.178 377.395 133.211 375.461Z" fill="white"/>
<path d="M130.411 378.261C129.245 377.095 127.828 376.511 126.161 376.511C124.528 376.511 123.128 377.095 121.961 378.261C120.761 379.428 120.161 380.845 120.161 382.511H132.161C132.161 380.845 131.578 379.428 130.411 378.261Z" fill="#3D465D"/>
<path d="M163.211 375.461C161.278 373.495 158.928 372.511 156.161 372.511C153.395 372.511 151.045 373.495 149.111 375.461C147.145 377.395 146.161 379.745 146.161 382.511H166.161C166.161 379.745 165.178 377.395 163.211 375.461Z" fill="white"/>
<path d="M160.411 378.261C159.245 377.095 157.828 376.511 156.161 376.511C154.528 376.511 153.128 377.095 151.961 378.261C150.761 379.428 150.161 380.845 150.161 382.511H162.161C162.161 380.845 161.578 379.428 160.411 378.261Z" fill="#3D465D"/>
<path d="M114.312 372.912C114.545 373.378 114.945 373.678 115.512 373.812L134.812 379.012C135.345 379.145 135.862 379.078 136.362 378.812C136.828 378.545 137.128 378.128 137.262 377.562L138.312 373.712C138.445 373.145 138.378 372.645 138.112 372.212C137.812 371.712 137.395 371.395 136.862 371.262L117.562 366.062C116.995 365.928 116.495 366.012 116.062 366.312C115.562 366.545 115.245 366.945 115.112 367.512L114.062 371.362C113.928 371.928 114.012 372.445 114.312 372.912Z" fill="#3D465D"/>
<path d="M145.961 378.812C146.461 379.078 146.978 379.145 147.511 379.012L166.811 373.812C167.378 373.678 167.778 373.378 168.011 372.912C168.311 372.445 168.395 371.928 168.261 371.362L167.211 367.512C167.078 366.945 166.761 366.545 166.261 366.312C165.828 366.012 165.328 365.928 164.761 366.062L145.461 371.262C144.928 371.395 144.511 371.712 144.211 372.212C143.945 372.645 143.878 373.145 144.011 373.712L145.061 377.562C145.195 378.128 145.495 378.545 145.961 378.812Z" fill="#3D465D"/>
<path d="M159.961 388.961C159.195 387.995 158.295 387.511 157.261 387.511C146.261 390.278 135.495 390.278 124.961 387.511C123.928 387.511 123.028 387.995 122.261 388.961C121.528 389.928 121.161 391.078 121.161 392.411V392.661C121.161 393.961 121.528 395.111 122.261 396.111C123.028 397.045 123.928 397.511 124.961 397.511C135.495 394.778 146.261 394.778 157.261 397.511C158.295 397.511 159.195 397.045 159.961 396.111C160.761 395.111 161.161 393.961 161.161 392.661V392.411C161.161 391.078 160.761 389.928 159.961 388.961Z" fill="white"/>
<path d="M103.319 418.178C102.975 417.968 102.627 417.781 102.274 417.618C99.0533 416.016 95.8569 416.915 92.6851 420.315C89.4945 423.687 87.8757 427.061 87.8286 430.435C87.7798 432.442 88.1797 434.487 89.0284 436.569L103.319 418.178Z" fill="url(#paint16_linear_55_3)"/>
<path d="M120.545 430.661C122.322 428.65 122.247 426.103 120.318 423.021C118.706 420.288 116.658 419.2 114.176 419.756C114.918 417.762 113.832 416.042 110.918 414.595C108.161 413.203 105.628 414.397 103.319 418.178L89.0283 436.57C89.5944 437.998 90.3732 439.443 91.3648 440.906C93.7971 444.492 97.0094 446.764 101.002 447.721C101.511 447.819 102.011 447.903 102.502 447.973C110.041 448.579 116.212 446.246 121.015 440.975C123.087 438.804 123.474 436.287 122.175 433.422C121.714 432.325 121.17 431.405 120.545 430.661Z" fill="url(#paint17_linear_55_3)"/>
<path d="M183.944 416.178C184.287 415.968 184.635 415.781 184.988 415.618C188.209 414.016 191.405 414.915 194.577 418.315C197.768 421.687 199.387 425.061 199.434 428.435C199.482 430.442 199.082 432.487 198.234 434.569L183.944 416.178Z" fill="url(#paint18_linear_55_3)"/>
<path d="M166.717 428.661C164.94 426.65 165.016 424.103 166.945 421.021C168.556 418.288 170.604 417.2 173.086 417.756C172.344 415.762 173.43 414.042 176.345 412.595C179.102 411.203 181.635 412.397 183.944 416.178L198.234 434.57C197.668 435.998 196.889 437.443 195.897 438.906C193.465 442.492 190.253 444.764 186.26 445.721C185.751 445.819 185.251 445.903 184.761 445.973C177.221 446.579 171.05 444.246 166.247 438.975C164.175 436.804 163.788 434.287 165.087 431.422C165.549 430.325 166.092 429.405 166.717 428.661Z" fill="url(#paint19_linear_55_3)"/>
<path d="M539.671 257.324C540.893 255.777 541.447 254.029 541.331 252.083C541.289 251.953 541.268 251.844 541.268 251.758C541.024 249.68 540.085 247.987 538.451 246.678C537.248 245.718 535.911 245.19 534.441 245.092C533.966 245.046 533.469 245.064 532.949 245.147C530.872 245.391 529.179 246.33 527.87 247.964C522.763 254.456 517.637 260.797 512.489 266.986C511.703 268.019 510.896 269.029 510.067 270.017C509.655 267.247 509.07 264.475 508.312 261.702C507.764 259.666 506.586 258.122 504.778 257.072C503.012 256.064 501.111 255.834 499.075 256.382C497.082 256.886 495.56 258.043 494.509 259.851C493.459 261.66 493.207 263.582 493.754 265.618C494.806 269.647 495.448 273.522 495.681 277.243C495.832 280.184 495.704 283.015 495.295 285.737C493.433 292.036 493.975 297.77 496.921 302.937C497.691 304.153 498.612 305.306 499.686 306.394C503.678 310.445 508.743 312.535 514.883 312.666C515.964 312.631 517.024 312.574 518.062 312.495C522.865 312.054 529.112 309.289 536.802 304.199C539.236 302.573 541.668 300.991 544.101 299.452C548.619 296.544 552.965 293.505 557.14 290.336C558.835 289.094 559.82 287.436 560.094 285.363C560.412 283.333 559.95 281.47 558.708 279.775C557.509 278.123 555.873 277.16 553.799 276.885C551.683 276.567 549.798 277.051 548.146 278.336C545.059 280.605 541.887 282.831 538.628 285.013C537.522 282.497 535.876 279.782 533.692 276.869C531.85 274.478 530.025 272.713 528.217 271.576C532.013 266.89 535.831 262.14 539.671 257.324Z" fill="url(#paint20_linear_55_3)"/>
<path d="M246.873 192.134C246.138 190.304 244.897 188.955 243.151 188.087C243.017 188.06 242.913 188.024 242.838 187.98C240.914 187.159 238.978 187.132 237.03 187.898C235.599 188.465 234.475 189.362 233.66 190.588C233.383 190.978 233.152 191.418 232.965 191.91C232.144 193.834 232.117 195.77 232.883 197.718C235.976 205.377 238.928 212.978 241.738 220.522C242.242 221.717 242.717 222.919 243.163 224.13C240.554 223.11 237.859 222.239 235.076 221.518C233.037 220.98 231.112 221.235 229.301 222.281C227.549 223.312 226.404 224.847 225.866 226.886C225.313 228.865 225.559 230.761 226.606 232.572C227.652 234.383 229.195 235.557 231.233 236.095C235.252 237.186 238.933 238.556 242.276 240.205C244.904 241.536 247.296 243.056 249.454 244.764C253.993 249.512 259.237 251.893 265.185 251.906C266.623 251.844 268.081 251.618 269.559 251.228C275.059 249.779 279.392 246.424 282.558 241.163C283.065 240.207 283.543 239.259 283.991 238.319C285.997 233.933 286.704 227.138 286.113 217.935C285.913 215.015 285.75 212.117 285.625 209.242C285.349 203.876 284.874 198.594 284.2 193.396C283.966 191.308 283.018 189.629 281.355 188.36C279.752 187.075 277.906 186.549 275.818 186.784C273.788 187.002 272.139 187.943 270.87 189.605C269.541 191.283 269.024 193.159 269.317 195.231C269.751 199.038 270.104 202.897 270.376 206.81C267.643 206.518 264.47 206.595 260.856 207.041C257.865 207.45 255.427 208.156 253.541 209.159C251.364 203.535 249.141 197.86 246.873 192.134Z" fill="url(#paint21_linear_55_3)"/>
<path d="M449.247 309.636C452.026 297.722 447.319 290.181 435.126 287.014L330.455 259.826C318.322 256.675 310.57 260.979 307.199 272.74L281.395 372.084C278.601 384.058 283.271 391.62 295.404 394.772L400.075 421.959C412.268 425.126 420.057 420.8 423.443 408.98L449.247 309.636Z" fill="url(#paint22_linear_55_3)"/>
<path d="M450.861 303.421C454.09 290.992 449.46 283.155 436.971 279.912L332.3 252.724C319.871 249.496 312.042 254.096 308.814 266.525L307.199 272.74C310.57 260.979 318.322 256.675 330.455 259.826L435.126 287.014C447.319 290.181 452.026 297.721 449.247 309.636L450.861 303.421Z" fill="url(#paint23_linear_55_3)"/>
<path d="M344.72 311.896C339.808 310.62 335.181 311.282 330.842 313.882C326.443 316.467 323.613 320.187 322.352 325.04C321.076 329.952 321.738 334.579 324.339 338.918C326.864 343.302 330.584 346.132 335.496 347.408C340.409 348.684 345.035 348.022 349.375 345.421C353.758 342.895 356.588 339.176 357.864 334.264C359.125 329.411 358.462 324.784 355.877 320.385C353.352 316.002 349.633 313.172 344.72 311.896Z" fill="white"/>
<path d="M342.875 318.998C339.975 318.244 337.212 318.664 334.587 320.257C331.919 321.775 330.208 323.984 329.454 326.884C328.686 329.843 329.098 332.636 330.69 335.26C332.224 337.87 334.44 339.552 337.341 340.305C340.3 341.073 343.084 340.691 345.694 339.158C348.304 337.624 349.993 335.378 350.761 332.418C351.515 329.518 351.125 326.763 349.591 324.154C348.073 321.485 345.834 319.766 342.875 318.998Z" fill="#3D465D"/>
<path d="M397.988 325.732C393.075 324.456 388.449 325.118 384.109 327.718C379.71 330.303 376.88 334.022 375.62 338.876C374.344 343.788 375.006 348.414 377.606 352.754C380.132 357.138 383.851 359.968 388.764 361.244C393.676 362.52 398.303 361.857 402.642 359.257C407.026 356.731 409.856 353.012 411.132 348.1C412.392 343.246 411.73 338.62 409.145 334.221C406.619 329.837 402.9 327.008 397.988 325.732Z" fill="white"/>
<path d="M396.143 332.834C393.243 332.081 390.48 332.5 387.855 334.093C385.187 335.611 383.476 337.82 382.722 340.72C381.954 343.68 382.366 346.472 383.958 349.097C385.492 351.706 387.708 353.388 390.609 354.141C393.568 354.91 396.352 354.527 398.962 352.994C401.572 351.46 403.261 349.214 404.029 346.255C404.783 343.354 404.393 340.6 402.859 337.99C401.341 335.321 399.102 333.603 396.143 332.834Z" fill="#3D465D"/>
<path d="M321.65 314.243C321.849 315.179 322.421 315.897 323.366 316.395L355.236 334.529C356.122 335.012 357.07 335.132 358.081 334.889C359.032 334.63 359.757 334.029 360.255 333.084L363.895 326.732C364.393 325.788 364.506 324.869 364.232 323.977C363.93 322.951 363.336 322.196 362.451 321.713L330.58 303.579C329.635 303.081 328.709 302.999 327.801 303.331C326.806 303.515 326.059 304.079 325.561 305.024L321.921 311.376C321.423 312.32 321.333 313.276 321.65 314.243Z" fill="#3D465D"/>
<path d="M380.511 314.938C379.487 314.988 378.623 315.395 377.919 316.16C377.186 316.791 376.808 317.64 376.783 318.708L376.872 326.028C376.847 327.096 377.218 327.982 377.982 328.686C378.688 329.375 379.553 329.694 380.577 329.644L417.221 329.401C418.288 329.425 419.174 329.055 419.878 328.29C420.552 327.644 420.901 326.787 420.925 325.719L420.837 318.399C420.861 317.331 420.521 316.453 419.815 315.764C419.109 315.076 418.223 314.719 417.155 314.694L380.511 314.938Z" fill="#3D465D"/>
<path d="M377.883 366.283C377.193 365.535 376.306 365.178 375.223 365.213C374.215 365.204 373.344 365.515 372.612 366.146C371.969 366.674 371.127 367.118 370.085 367.48C367.542 368.272 364.79 368.284 361.831 367.515C360.47 367.162 359.228 366.713 358.106 366.169C357.146 365.73 356.182 365.669 355.215 365.987C354.279 366.186 353.562 366.758 353.064 367.702C352.596 368.528 352.551 369.433 352.928 370.415C353.217 371.248 353.863 371.922 354.867 372.435C356.373 373.205 358.102 373.844 360.056 374.351C364.613 375.535 368.826 375.492 372.693 374.222L372.582 374.288C374.917 373.568 376.758 372.561 378.104 371.268C378.793 370.563 379.134 369.735 379.128 368.786C379.078 367.762 378.663 366.928 377.883 366.283Z" fill="#3D465D"/>
<path d="M113.15 79.9C109.217 75.9667 104.5 74 99 74C93.5 74 88.7833 75.9667 84.85 79.9C80.95 83.8 79 88.5 79 94C79 99.5333 80.95 104.25 84.85 108.15C88.7833 112.05 93.5 114 99 114C104.5 114 109.217 112.05 113.15 108.15C117.05 104.25 119 99.5333 119 94C119 88.5 117.05 83.8 113.15 79.9ZM99 84C101.767 84 104.133 84.9833 106.1 86.95C108.033 88.9167 109 91.2667 109 94C109 96.7667 108.033 99.1333 106.1 101.1C104.133 103.033 101.767 104 99 104C96.2667 104 93.9167 103.033 91.95 101.1C89.9833 99.1333 89 96.7667 89 94C89 91.2667 89.9833 88.9167 91.95 86.95C93.9167 84.9833 96.2667 84 99 84Z" fill="url(#paint24_linear_55_3)"/>
<path d="M106.1 86.95C104.133 84.9833 101.767 84 99 84C96.2667 84 93.9167 84.9833 91.95 86.95C89.9833 88.9167 89 91.2667 89 94C89 96.7667 89.9833 99.1333 91.95 101.1C93.9167 103.033 96.2667 104 99 104C101.767 104 104.133 103.033 106.1 101.1C108.033 99.1333 109 96.7667 109 94C109 91.2667 108.033 88.9167 106.1 86.95Z" fill="url(#paint25_linear_55_3)"/>
<path d="M279.546 558.959L281.218 549.1L202.345 535.718L200.673 545.577C199.755 552.184 202.648 556.055 209.352 557.193L267.472 567.053C274.209 568.196 278.233 565.498 279.546 558.959Z" fill="url(#paint26_linear_55_3)"/>
<path d="M282.222 543.184C283.173 536.584 280.263 532.709 273.493 531.56L215.374 521.7C208.637 520.557 204.628 523.258 203.349 529.803L202.345 535.718L281.218 549.1L282.222 543.184Z" fill="url(#paint27_linear_55_3)"/>
<path d="M282.807 539.734C283.978 532.832 281.097 528.793 274.162 527.617L216.043 517.756C209.141 516.585 205.105 519.451 203.934 526.352L203.349 529.803C204.628 523.258 208.637 520.557 215.374 521.7L273.493 531.561C280.263 532.709 283.173 536.584 282.222 543.184L282.807 539.734Z" fill="url(#paint28_linear_55_3)"/>
<path d="M649.75 152.75C644.85 151.583 638.267 151 630 151C621.7 151 615.117 151.583 610.25 152.75C605.017 154.017 600.933 156.1 598 159C595.1 161.933 593.017 166.017 591.75 171.25C590.717 175.65 590.15 181.4 590.05 188.5C590.05 188.833 590.05 189.167 590.05 189.5C590.15 196.6 590.717 202.35 591.75 206.75C593.017 212.017 595.1 216.1 598 219C600.933 221.933 605.017 224.017 610.25 225.25C615.117 226.417 621.7 227 630 227C638.267 227 644.85 226.417 649.75 225.25C655.017 224.017 659.1 221.933 662 219C664.933 216.1 667.017 212.017 668.25 206.75C669.283 202.417 669.867 196.75 670 189.75C670 189.65 670 189.567 670 189.5V188.25C669.867 181.25 669.283 175.583 668.25 171.25C667.017 166.017 664.933 161.933 662 159C659.1 156.1 655.017 154.017 649.75 152.75Z" fill="url(#paint29_linear_55_3)"/>
<path d="M630 151C638.267 151 644.85 151.583 649.75 152.75C655.017 154.017 659.1 156.1 662 159C664.933 161.933 667.017 166.017 668.25 171.25C669.283 175.583 669.867 181.25 670 188.25C670 187.85 670 187.433 670 187C670 178.733 669.417 172.15 668.25 167.25C667.017 162.017 664.933 157.933 662 155C659.1 152.1 655.017 150.017 649.75 148.75C644.85 147.583 638.267 147 630 147C621.7 147 615.117 147.583 610.25 148.75C605.017 150.017 600.933 152.1 598 155C595.1 157.933 593.017 162.017 591.75 167.25C590.583 172.15 590 178.733 590 187C590 187.5 590.017 188 590.05 188.5C590.15 181.4 590.717 175.65 591.75 171.25C593.017 166.017 595.1 161.933 598 159C600.933 156.1 605.017 154.017 610.25 152.75C615.117 151.583 621.7 151 630 151Z" fill="url(#paint30_linear_55_3)"/>
<path d="M625.217 186.011H605.217C605.217 188.778 606.2 191.128 608.167 193.061C610.1 195.028 612.45 196.011 615.217 196.011C617.983 196.011 620.333 195.028 622.267 193.061C624.233 191.128 625.217 188.778 625.217 186.011Z" fill="white"/>
<path d="M621.217 186.011H609.217C609.217 187.678 609.817 189.095 611.017 190.261C612.183 191.428 613.583 192.011 615.217 192.011C616.883 192.011 618.3 191.428 619.467 190.261C620.633 189.095 621.217 187.678 621.217 186.011Z" fill="#3D465D"/>
<path d="M655.217 186.011H635.217C635.217 188.778 636.2 191.128 638.167 193.061C640.1 195.028 642.45 196.011 645.217 196.011C647.983 196.011 650.333 195.028 652.267 193.061C654.233 191.128 655.217 188.778 655.217 186.011Z" fill="white"/>
<path d="M651.217 186.011H639.217C639.217 187.678 639.817 189.095 641.017 190.261C642.183 191.428 643.583 192.011 645.217 192.011C646.883 192.011 648.3 191.428 649.467 190.261C650.633 189.095 651.217 187.678 651.217 186.011Z" fill="#3D465D"/>
<path d="M605.017 181.812C605.517 182.078 606.033 182.145 606.567 182.012L625.867 176.812C626.433 176.678 626.833 176.378 627.067 175.912C627.367 175.445 627.45 174.928 627.317 174.362L626.267 170.512C626.133 169.945 625.817 169.545 625.317 169.312C624.883 169.012 624.383 168.928 623.817 169.062L604.517 174.262C603.983 174.395 603.567 174.712 603.267 175.212C603 175.645 602.933 176.145 603.067 176.712L604.117 180.562C604.25 181.128 604.55 181.545 605.017 181.812Z" fill="#3D465D"/>
<path d="M633.317 179.862C633.583 180.362 633.983 180.695 634.517 180.862L653.817 186.012C654.383 186.145 654.9 186.078 655.367 185.812C655.833 185.545 656.133 185.128 656.267 184.562L657.317 180.712C657.45 180.145 657.383 179.645 657.117 179.212C656.85 178.712 656.433 178.395 655.867 178.262L636.567 173.112C636.033 172.945 635.533 172.995 635.067 173.262C634.567 173.528 634.25 173.945 634.117 174.512L633.067 178.362C632.933 178.928 633.017 179.428 633.317 179.862Z" fill="#3D465D"/>
<path d="M640.117 197.412C639.65 197.112 639.133 197.045 638.567 197.212C638.033 197.345 637.617 197.628 637.317 198.062C637.05 198.428 636.667 198.778 636.167 199.112C634.933 199.878 633.483 200.262 631.817 200.262C631.05 200.262 630.333 200.195 629.667 200.062C629.1 199.962 628.583 200.062 628.117 200.362C627.65 200.595 627.35 200.995 627.217 201.562C627.083 202.062 627.183 202.545 627.517 203.012C627.783 203.412 628.217 203.678 628.817 203.812C629.717 204.012 630.717 204.112 631.817 204.112C634.383 204.112 636.6 203.512 638.467 202.312L638.417 202.362C639.55 201.662 640.383 200.878 640.917 200.012C641.183 199.545 641.25 199.062 641.117 198.562C640.95 198.028 640.617 197.645 640.117 197.412Z" fill="#37393F"/>
<path d="M566.389 131.8C566.389 131.233 566.423 130.683 566.489 130.15C566.623 128.75 567.273 127.6 568.439 126.7C569.506 125.867 570.773 125.5 572.239 125.6C573.673 125.733 574.856 126.333 575.789 127.4C576.723 128.533 577.123 129.75 576.989 131.05C576.823 132.917 576.856 134.65 577.089 136.25C577.423 138.55 578.239 140.583 579.539 142.35C579.639 142.483 579.723 142.583 579.789 142.65L566.389 131.8Z" fill="url(#paint31_linear_55_3)"/>
<path d="M548.139 124.95C549.006 123.85 550.156 123.217 551.589 123.05C551.756 123.017 551.923 123 552.089 123C552.289 123 552.473 123 552.639 123C553.639 123.067 554.573 123.4 555.439 124C559.106 126.633 562.756 129.233 566.389 131.8L579.789 142.65C581.123 145.15 581.323 147.917 580.389 150.95C580.123 151.617 579.806 152.267 579.439 152.9C577.739 155.667 575.173 157.5 571.739 158.4C569.139 159.1 566.623 159.133 564.189 158.5C563.789 158.4 563.389 158.283 562.989 158.15L556.889 156.2C556.556 156.1 556.239 156 555.939 155.9C555.839 155.867 555.739 155.833 555.639 155.8C554.239 155.133 553.239 154.133 552.639 152.8C551.939 151.3 551.923 149.833 552.589 148.4C552.689 148.167 552.806 147.933 552.939 147.7C552.706 147.233 552.523 146.733 552.389 146.2C551.989 144.7 552.189 143.267 552.989 141.9C553.589 140.967 554.373 140.25 555.339 139.75L555.389 139.7L557.939 138.4C555.039 136.3 552.106 134.2 549.139 132.1C547.973 131.233 547.273 130.1 547.039 128.7C546.873 127.333 547.239 126.083 548.139 124.95Z" fill="url(#paint32_linear_55_3)"/>
<path d="M562.389 175.8C562.389 175.233 562.423 174.683 562.489 174.15C562.623 172.75 563.273 171.6 564.439 170.7C565.506 169.867 566.773 169.5 568.239 169.6C569.673 169.733 570.856 170.333 571.789 171.4C572.723 172.533 573.123 173.75 572.989 175.05C572.823 176.917 572.856 178.65 573.089 180.25C573.423 182.55 574.239 184.583 575.539 186.35C575.639 186.483 575.723 186.583 575.789 186.65L562.389 175.8Z" fill="url(#paint33_linear_55_3)"/>
<path d="M544.139 168.95C545.006 167.85 546.156 167.217 547.589 167.05C547.756 167.017 547.923 167 548.089 167C548.289 167 548.473 167 548.639 167C549.639 167.067 550.573 167.4 551.439 168C555.106 170.633 558.756 173.233 562.389 175.8L575.789 186.65C577.123 189.15 577.323 191.917 576.389 194.95C576.123 195.617 575.806 196.267 575.439 196.9C573.739 199.667 571.173 201.5 567.739 202.4C565.139 203.1 562.623 203.133 560.189 202.5C559.789 202.4 559.389 202.283 558.989 202.15L552.889 200.2C552.556 200.1 552.239 200 551.939 199.9C551.839 199.867 551.739 199.833 551.639 199.8C550.239 199.133 549.239 198.133 548.639 196.8C547.939 195.3 547.923 193.833 548.589 192.4C548.689 192.167 548.806 191.933 548.939 191.7C548.706 191.233 548.523 190.733 548.389 190.2C547.989 188.7 548.189 187.267 548.989 185.9C549.589 184.967 550.373 184.25 551.339 183.75L551.389 183.7L553.939 182.4C551.039 180.3 548.106 178.2 545.139 176.1C543.973 175.233 543.273 174.1 543.039 172.7C542.873 171.333 543.239 170.083 544.139 168.95Z" fill="url(#paint34_linear_55_3)"/>
<path d="M523.142 574.826L530.445 525.362L451.302 513.678L445.468 553.2C444.654 559.852 447.627 563.678 454.387 564.676L523.142 574.826ZM467.281 545.806C468.125 546.942 468.446 548.185 468.247 549.537C468.047 550.889 467.382 551.971 466.252 552.781C465.149 553.629 463.922 553.953 462.57 553.754C461.218 553.554 460.121 552.887 459.277 551.751C458.462 550.654 458.155 549.429 458.354 548.077C458.554 546.725 459.205 545.625 460.307 544.777C461.437 543.967 462.679 543.661 464.031 543.861C465.383 544.06 466.466 544.709 467.281 545.806Z" fill="url(#paint35_linear_55_3)"/>
<path d="M468.247 549.537C468.446 548.185 468.125 546.942 467.281 545.806C466.466 544.709 465.383 544.06 464.031 543.861C462.679 543.661 461.437 543.967 460.307 544.777C459.205 545.625 458.554 546.725 458.354 548.077C458.155 549.429 458.462 550.654 459.277 551.751C460.121 552.887 461.218 553.554 462.57 553.754C463.922 553.953 465.149 553.629 466.252 552.781C467.382 551.971 468.047 550.889 468.247 549.537Z" fill="#A4B9D1"/>
<path d="M534.242 499.641L534.826 495.684L466.071 485.533C459.146 484.511 455.173 487.462 454.15 494.387L453.639 497.85C454.778 491.279 458.727 488.493 465.487 489.491L534.242 499.641Z" fill="url(#paint36_linear_55_3)"/>
<path d="M530.445 525.362L534.242 499.641L465.487 489.491C458.727 488.493 454.778 491.279 453.639 497.85L451.302 513.678L530.445 525.362Z" fill="url(#paint37_linear_55_3)"/>
<path d="M601.295 586.363L608.597 536.9L529.455 525.216L522.153 574.68L601.295 586.363Z" fill="url(#paint38_linear_55_3)"/>
<path d="M612.395 511.178L612.979 507.221L533.837 495.538L533.252 499.495L612.395 511.178Z" fill="url(#paint39_linear_55_3)"/>
<path d="M608.598 536.9L612.395 511.178L533.253 499.495L529.455 525.216L608.598 536.9Z" fill="url(#paint40_linear_55_3)"/>
<path d="M669.061 596.368C675.821 597.366 679.772 594.563 680.916 587.959L686.75 548.437L607.608 536.754L600.306 586.218L669.061 596.368ZM665.843 573.654C667.195 573.854 668.279 574.502 669.094 575.6C669.937 576.735 670.259 577.979 670.06 579.331C669.86 580.683 669.195 581.764 668.064 582.574C666.962 583.422 665.735 583.747 664.383 583.547C663.031 583.348 661.933 582.68 661.09 581.545C660.275 580.447 659.967 579.223 660.167 577.871C660.366 576.519 661.017 575.418 662.12 574.57C663.25 573.76 664.491 573.455 665.843 573.654Z" fill="url(#paint41_linear_55_3)"/>
<path d="M669.094 575.6C668.279 574.503 667.195 573.854 665.843 573.655C664.491 573.455 663.25 573.76 662.12 574.571C661.017 575.419 660.366 576.519 660.167 577.871C659.967 579.223 660.275 580.447 661.09 581.545C661.933 582.68 663.031 583.348 664.383 583.547C665.735 583.747 666.962 583.423 668.065 582.575C669.195 581.764 669.86 580.683 670.06 579.331C670.259 577.979 669.937 576.735 669.094 575.6Z" fill="#A4B9D1"/>
<path d="M689.087 532.609L689.598 529.147C690.621 522.222 687.669 518.248 680.744 517.226L611.99 507.075L611.405 511.033L680.16 521.183C686.92 522.181 689.896 525.99 689.087 532.609Z" fill="url(#paint42_linear_55_3)"/>
<path d="M686.75 548.437L689.087 532.609C689.896 525.989 686.92 522.181 680.16 521.183L611.405 511.032L607.608 536.754L686.75 548.437Z" fill="url(#paint43_linear_55_3)"/>
<defs>
<linearGradient id="paint0_linear_55_3" x1="65.6212" y1="127.547" x2="95.9302" y2="207.993" gradientUnits="userSpaceOnUse">
<stop stop-color="#FF99E7"/>
<stop offset="1" stop-color="#FF72A9"/>
</linearGradient>
<linearGradient id="paint1_linear_55_3" x1="65.2751" y1="127.39" x2="81.7556" y2="171.133" gradientUnits="userSpaceOnUse">
<stop stop-color="#FFB6EA"/>
<stop offset="1" stop-color="#FF94E0"/>
</linearGradient>
<linearGradient id="paint2_linear_55_3" x1="198.653" y1="67.1283" x2="182.014" y2="125.182" gradientUnits="userSpaceOnUse">
<stop stop-color="#FF99E7"/>
<stop offset="1" stop-color="#FF72A9"/>
</linearGradient>
<linearGradient id="paint3_linear_55_3" x1="52.3873" y1="173.951" x2="99.0568" y2="212.279" gradientUnits="userSpaceOnUse">
<stop stop-color="#FF99E7"/>
<stop offset="1" stop-color="#FF72A9"/>
</linearGradient>
<linearGradient id="paint4_linear_55_3" x1="564.025" y1="384.039" x2="559.948" y2="463.935" gradientUnits="userSpaceOnUse">
<stop stop-color="#71CF93"/>
<stop offset="1" stop-color="#59B15C"/>
</linearGradient>
<linearGradient id="paint5_linear_55_3" x1="563.788" y1="383.776" x2="561.571" y2="427.22" gradientUnits="userSpaceOnUse">
<stop stop-color="#85DFAF"/>
<stop offset="1" stop-color="#69C581"/>
</linearGradient>
<linearGradient id="paint6_linear_55_3" x1="501.288" y1="466.437" x2="510.727" y2="446.454" gradientUnits="userSpaceOnUse">
<stop stop-color="#58A76A"/>
<stop offset="1" stop-color="#5EB768"/>
</linearGradient>
<linearGradient id="paint7_linear_55_3" x1="562.071" y1="520.031" x2="586.074" y2="469.215" gradientUnits="userSpaceOnUse">
<stop stop-color="#71CF93"/>
<stop offset="1" stop-color="#59B15C"/>
</linearGradient>
<linearGradient id="paint8_linear_55_3" x1="673.172" y1="437.047" x2="622.447" y2="412.851" gradientUnits="userSpaceOnUse">
<stop stop-color="#71CF93"/>
<stop offset="1" stop-color="#59B15C"/>
</linearGradient>
<linearGradient id="paint9_linear_55_3" x1="151.33" y1="525.4" x2="146.396" y2="485.706" gradientUnits="userSpaceOnUse">
<stop stop-color="#C6D5E6"/>
<stop offset="1" stop-color="#A2B7D0"/>
</linearGradient>
<linearGradient id="paint10_linear_55_3" x1="139.857" y1="433.111" x2="149.727" y2="512.499" gradientUnits="userSpaceOnUse">
<stop stop-color="#A875E9"/>
<stop offset="0.517647" stop-color="#905AE5"/>
<stop offset="1" stop-color="#6548B9"/>
</linearGradient>
<linearGradient id="paint11_linear_55_3" x1="142.415" y1="455.718" x2="147.782" y2="498.885" gradientUnits="userSpaceOnUse">
<stop stop-color="#C28DEF"/>
<stop offset="1" stop-color="#A471E8"/>
</linearGradient>
<linearGradient id="paint12_linear_55_3" x1="486.3" y1="58.5054" x2="471.29" y2="137.085" gradientUnits="userSpaceOnUse">
<stop stop-color="#FFCD59"/>
<stop offset="1" stop-color="#F7A41B"/>
</linearGradient>
<linearGradient id="paint13_linear_55_3" x1="486.102" y1="58.2129" x2="477.94" y2="100.94" gradientUnits="userSpaceOnUse">
<stop stop-color="#FFE383"/>
<stop offset="1" stop-color="#FFB43C"/>
</linearGradient>
<linearGradient id="paint14_linear_55_3" x1="-128" y1="342" x2="-128" y2="422" gradientUnits="userSpaceOnUse">
<stop stop-color="#E26081"/>
<stop offset="1" stop-color="#D44947"/>
</linearGradient>
<linearGradient id="paint15_linear_55_3" x1="-128.25" y1="341.75" x2="-128.25" y2="385.25" gradientUnits="userSpaceOnUse">
<stop stop-color="#F37F98"/>
<stop offset="1" stop-color="#D74854"/>
</linearGradient>
<linearGradient id="paint16_linear_55_3" x1="104.035" y1="419.323" x2="85.7448" y2="431.728" gradientUnits="userSpaceOnUse">
<stop stop-color="#B74757"/>
<stop offset="1" stop-color="#D64D53"/>
</linearGradient>
<linearGradient id="paint17_linear_55_3" x1="78.9594" y1="342.264" x2="32.4475" y2="373.809" gradientUnits="userSpaceOnUse">
<stop stop-color="#E26081"/>
<stop offset="1" stop-color="#D44947"/>
</linearGradient>
<linearGradient id="paint18_linear_55_3" x1="183.227" y1="417.323" x2="201.517" y2="429.728" gradientUnits="userSpaceOnUse">
<stop stop-color="#B74757"/>
<stop offset="1" stop-color="#D64D53"/>
</linearGradient>
<linearGradient id="paint19_linear_55_3" x1="208.303" y1="340.264" x2="254.815" y2="371.809" gradientUnits="userSpaceOnUse">
<stop stop-color="#E26081"/>
<stop offset="1" stop-color="#D44947"/>
</linearGradient>
<linearGradient id="paint20_linear_55_3" x1="558.391" y1="242.996" x2="484.962" y2="315.368" gradientUnits="userSpaceOnUse">
<stop stop-color="#A875E9"/>
<stop offset="0.517647" stop-color="#905AE5"/>
<stop offset="1" stop-color="#6548B9"/>
</linearGradient>
<linearGradient id="paint21_linear_55_3" x1="243.752" y1="168.768" x2="270.022" y2="268.465" gradientUnits="userSpaceOnUse">
<stop stop-color="#A875E9"/>
<stop offset="0.517647" stop-color="#905AE5"/>
<stop offset="1" stop-color="#6548B9"/>
</linearGradient>
<linearGradient id="paint22_linear_55_3" x1="384.68" y1="266.329" x2="347.784" y2="408.377" gradientUnits="userSpaceOnUse">
<stop stop-color="#A875E9"/>
<stop offset="0.517647" stop-color="#905AE5"/>
<stop offset="1" stop-color="#6548B9"/>
</linearGradient>
<linearGradient id="paint23_linear_55_3" x1="384.351" y1="265.77" x2="364.289" y2="343.009" gradientUnits="userSpaceOnUse">
<stop stop-color="#C28DEF"/>
<stop offset="1" stop-color="#A471E8"/>
</linearGradient>
<linearGradient id="paint24_linear_55_3" x1="99" y1="64" x2="99" y2="124" gradientUnits="userSpaceOnUse">
<stop stop-color="#FEDE6F"/>
<stop offset="1" stop-color="#FFB43C"/>
</linearGradient>
<linearGradient id="paint25_linear_55_3" x1="109" y1="104" x2="89" y2="84" gradientUnits="userSpaceOnUse">
<stop stop-color="#FEDE6F"/>
<stop offset="1" stop-color="#FFB43C"/>
</linearGradient>
<linearGradient id="paint26_linear_55_3" x1="233.418" y1="591.705" x2="240.109" y2="552.268" gradientUnits="userSpaceOnUse">
<stop stop-color="#C6D5E6"/>
<stop offset="1" stop-color="#A2B7D0"/>
</linearGradient>
<linearGradient id="paint27_linear_55_3" x1="248.974" y1="500.015" x2="235.593" y2="578.888" gradientUnits="userSpaceOnUse">
<stop stop-color="#A875E9"/>
<stop offset="0.517647" stop-color="#905AE5"/>
<stop offset="1" stop-color="#6548B9"/>
</linearGradient>
<linearGradient id="paint28_linear_55_3" x1="244.923" y1="522.402" x2="237.646" y2="565.29" gradientUnits="userSpaceOnUse">
<stop stop-color="#C28DEF"/>
<stop offset="1" stop-color="#A471E8"/>
</linearGradient>
<linearGradient id="paint29_linear_55_3" x1="450" y1="147" x2="450" y2="227" gradientUnits="userSpaceOnUse">
<stop stop-color="#FFCD59"/>
<stop offset="1" stop-color="#F7A41B"/>
</linearGradient>
<linearGradient id="paint30_linear_55_3" x1="449.75" y1="146.75" x2="449.75" y2="190.25" gradientUnits="userSpaceOnUse">
<stop stop-color="#FFE383"/>
<stop offset="1" stop-color="#FFB43C"/>
</linearGradient>
<linearGradient id="paint31_linear_55_3" x1="572.789" y1="125.6" x2="572.789" y2="142.4" gradientUnits="userSpaceOnUse">
<stop stop-color="#E9B343"/>
<stop offset="1" stop-color="#FBB83A"/>
</linearGradient>
<linearGradient id="paint32_linear_55_3" x1="438.939" y1="112.9" x2="438.939" y2="169.1" gradientUnits="userSpaceOnUse">
<stop stop-color="#FFCD59"/>
<stop offset="1" stop-color="#F7A41B"/>
</linearGradient>
<linearGradient id="paint33_linear_55_3" x1="568.789" y1="169.6" x2="568.789" y2="186.4" gradientUnits="userSpaceOnUse">
<stop stop-color="#E9B343"/>
<stop offset="1" stop-color="#FBB83A"/>
</linearGradient>
<linearGradient id="paint34_linear_55_3" x1="434.939" y1="156.9" x2="434.939" y2="213.1" gradientUnits="userSpaceOnUse">
<stop stop-color="#FFCD59"/>
<stop offset="1" stop-color="#F7A41B"/>
</linearGradient>
<linearGradient id="paint35_linear_55_3" x1="485.032" y1="559.091" x2="490.873" y2="519.52" gradientUnits="userSpaceOnUse">
<stop stop-color="#C6D5E6"/>
<stop offset="1" stop-color="#A2B7D0"/>
</linearGradient>
<linearGradient id="paint36_linear_55_3" x1="495.044" y1="489.558" x2="488.691" y2="532.592" gradientUnits="userSpaceOnUse">
<stop stop-color="#FFE383"/>
<stop offset="1" stop-color="#FFB43C"/>
</linearGradient>
<linearGradient id="paint37_linear_55_3" x1="498.614" y1="467.088" x2="486.93" y2="546.231" gradientUnits="userSpaceOnUse">
<stop stop-color="#FFCD59"/>
<stop offset="1" stop-color="#F7A41B"/>
</linearGradient>
<linearGradient id="paint38_linear_55_3" x1="541.915" y1="567.489" x2="547.757" y2="527.918" gradientUnits="userSpaceOnUse">
<stop stop-color="#C6D5E6"/>
<stop offset="1" stop-color="#A2B7D0"/>
</linearGradient>
<linearGradient id="paint39_linear_55_3" x1="551.829" y1="497.941" x2="545.476" y2="540.975" gradientUnits="userSpaceOnUse">
<stop stop-color="#FFE383"/>
<stop offset="1" stop-color="#FFB43C"/>
</linearGradient>
<linearGradient id="paint40_linear_55_3" x1="555.497" y1="475.486" x2="543.814" y2="554.628" gradientUnits="userSpaceOnUse">
<stop stop-color="#FFCD59"/>
<stop offset="1" stop-color="#F7A41B"/>
</linearGradient>
<linearGradient id="paint41_linear_55_3" x1="641.337" y1="582.167" x2="647.179" y2="542.596" gradientUnits="userSpaceOnUse">
<stop stop-color="#C6D5E6"/>
<stop offset="1" stop-color="#A2B7D0"/>
</linearGradient>
<linearGradient id="paint42_linear_55_3" x1="651.845" y1="512.706" x2="645.492" y2="555.74" gradientUnits="userSpaceOnUse">
<stop stop-color="#FFE383"/>
<stop offset="1" stop-color="#FFB43C"/>
</linearGradient>
<linearGradient id="paint43_linear_55_3" x1="654.92" y1="490.164" x2="643.236" y2="569.306" gradientUnits="userSpaceOnUse">
<stop stop-color="#FFCD59"/>
<stop offset="1" stop-color="#F7A41B"/>
</linearGradient>
</defs>
</svg>
