<svg width="80" height="80" viewBox="0 0 80 80" fill="none" xmlns="http://www.w3.org/2000/svg">
<path d="M80 14C79.8333 7.33333 76.3167 4 69.45 4H10.5C3.66667 4 0.166667 7.33333 0 14V69.95C0.166667 76.65 3.66667 80 10.5 80H69.45C76.3167 80 79.8333 76.65 80 69.95V14Z" fill="url(#paint0_linear_54_2375)"/>
<path d="M80 10.5C80 3.5 76.4833 0 69.45 0H10.5C3.5 0 0 3.5 0 10.5V14C0.166667 7.33333 3.66667 4 10.5 4H69.45C76.3167 4 79.8333 7.33333 80 14V10.5Z" fill="url(#paint1_linear_54_2375)"/>
<path d="M25.1615 29.5167C22.3948 29.5167 20.0448 30.5 18.1115 32.4667C16.1448 34.4333 15.1615 36.7833 15.1615 39.5167C15.1615 42.2833 16.1448 44.6333 18.1115 46.5667C20.0448 48.5333 22.3948 49.5167 25.1615 49.5167C27.9282 49.5167 30.2782 48.5333 32.2115 46.5667C34.1782 44.6333 35.1615 42.2833 35.1615 39.5167C35.1615 36.7833 34.1782 34.4333 32.2115 32.4667C30.2782 30.5 27.9282 29.5167 25.1615 29.5167Z" fill="white"/>
<path d="M25.1615 33.5167C23.5282 33.5167 22.1282 34.1167 20.9615 35.3167C19.7615 36.4833 19.1615 37.8833 19.1615 39.5167C19.1615 41.1833 19.7615 42.6 20.9615 43.7667C22.1282 44.9333 23.5282 45.5167 25.1615 45.5167C26.8282 45.5167 28.2448 44.9333 29.4115 43.7667C30.5782 42.6 31.1615 41.1833 31.1615 39.5167C31.1615 37.8833 30.5782 36.4833 29.4115 35.3167C28.2448 34.1167 26.8282 33.5167 25.1615 33.5167Z" fill="#3D465D"/>
<path d="M55.1615 29.5167C52.3948 29.5167 50.0448 30.5 48.1115 32.4667C46.1448 34.4333 45.1615 36.7833 45.1615 39.5167C45.1615 42.2833 46.1448 44.6333 48.1115 46.5667C50.0448 48.5333 52.3948 49.5167 55.1615 49.5167C57.9282 49.5167 60.2782 48.5333 62.2115 46.5667C64.1782 44.6333 65.1615 42.2833 65.1615 39.5167C65.1615 36.7833 64.1782 34.4333 62.2115 32.4667C60.2782 30.5 57.9282 29.5167 55.1615 29.5167Z" fill="white"/>
<path d="M55.1615 33.5167C53.5282 33.5167 52.1282 34.1167 50.9615 35.3167C49.7615 36.4833 49.1615 37.8833 49.1615 39.5167C49.1615 41.1833 49.7615 42.6 50.9615 43.7667C52.1282 44.9333 53.5282 45.5167 55.1615 45.5167C56.8282 45.5167 58.2448 44.9333 59.4115 43.7667C60.5782 42.6 61.1615 41.1833 61.1615 39.5167C61.1615 37.8833 60.5782 36.4833 59.4115 35.3167C58.2448 34.1167 56.8282 33.5167 55.1615 33.5167Z" fill="#3D465D"/>
<path d="M13.3115 33.9167C13.5449 34.3833 13.9449 34.6833 14.5115 34.8167L33.8115 40.0167C34.3449 40.15 34.8615 40.0833 35.3615 39.8167C35.8282 39.55 36.1282 39.1333 36.2615 38.5667L37.3115 34.7167C37.4449 34.15 37.3782 33.65 37.1115 33.2167C36.8115 32.7167 36.3949 32.4 35.8615 32.2667L16.5615 27.0667C15.9949 26.9333 15.4949 27.0167 15.0615 27.3167C14.5615 27.55 14.2449 27.95 14.1115 28.5167L13.0615 32.3667C12.9282 32.9333 13.0115 33.45 13.3115 33.9167Z" fill="#3D465D"/>
<path d="M44.4615 26.2167C43.9282 26.3833 43.5282 26.7167 43.2615 27.2167C42.9615 27.65 42.8782 28.15 43.0115 28.7167L44.0615 32.5667C44.1948 33.1333 44.5115 33.55 45.0115 33.8167C45.4782 34.0833 45.9782 34.1333 46.5115 33.9667L65.8115 28.8167C66.3782 28.6833 66.7948 28.3667 67.0615 27.8667C67.3282 27.4333 67.3948 26.9333 67.2615 26.3667L66.2115 22.5167C66.0782 21.95 65.7782 21.5333 65.3115 21.2667C64.8448 21 64.3282 20.9333 63.7615 21.0667L44.4615 26.2167Z" fill="#3D465D"/>
<path d="M50.1116 53.6667C49.6449 53.3667 49.1282 53.3 48.5616 53.4667C48.0282 53.6 47.6116 53.8833 47.3116 54.3167C47.0449 54.6833 46.6616 55.0333 46.1616 55.3667C44.9282 56.1333 43.4782 56.5167 41.8116 56.5167C41.0449 56.5167 40.3282 56.45 39.6616 56.3167C39.0949 56.2167 38.5782 56.3167 38.1116 56.6167C37.6449 56.85 37.3449 57.25 37.2116 57.8167C37.0782 58.3167 37.1782 58.8 37.5116 59.2667C37.7782 59.6667 38.2116 59.9333 38.8116 60.0667C39.7116 60.2667 40.7116 60.3667 41.8116 60.3667C44.3782 60.3667 46.5949 59.7667 48.4616 58.5667L48.4116 58.6167C49.5449 57.9167 50.3782 57.1333 50.9116 56.2667C51.1782 55.8 51.2449 55.3167 51.1116 54.8167C50.9449 54.2833 50.6116 53.9 50.1116 53.6667Z" fill="#3D465D"/>
<defs>
<linearGradient id="paint0_linear_54_2375" x1="40" y1="-1.09798e-07" x2="40" y2="80" gradientUnits="userSpaceOnUse">
<stop stop-color="#A875E9"/>
<stop offset="0.517647" stop-color="#905AE5"/>
<stop offset="1" stop-color="#6548B9"/>
</linearGradient>
<linearGradient id="paint1_linear_54_2375" x1="39.75" y1="-0.25" x2="39.75" y2="43.25" gradientUnits="userSpaceOnUse">
<stop stop-color="#C28DEF"/>
<stop offset="1" stop-color="#A471E8"/>
</linearGradient>
</defs>
</svg>
